# xmcd CD database file
#
# Track frame offsets:
#	150
#	14904
#	32344
#	46408
#	63362
#	82162
#	97571
#	116840
#	132626
#	143766
#
# Disc length: 2122 seconds
#
# Revision: 0
# Processed by: cddbd v1.5.1PL0 Copyright (c) Steve Scherf et al.
# Submitted via: CDex 1.51
#
DISCID=8708480a
DTITLE=Parker Trio - Tearin' down the walls
DYEAR=2004
DGENRE=CCM
TTITLE0=Tearin' Down the Walls
TTITLE1=Free Indeed
TTITLE2=He Lives
TTITLE3=I'll Just Stand
TTITLE4=Beauty From Ashes
TTITLE5=Mighty is the Word
TTITLE6=Someone else's Sin
TTITLE7='Til There's Nothing Left But You
TTITLE8=I Want to Walk Like Him
TTITLE9=When You See a Cross He Sees a Crown
EXTD=YEAR: 2004
EXTT0=
EXTT1=
EXTT2=
EXTT3=
EXTT4=
EXTT5=
EXTT6=
EXTT7=
EXTT8=
EXTT9=
PLAYORDER=
